PathFileType	4	(X/Y/Z)	D:\TRACE\spot_10-12-23\spot_arm_motion_3_3-v60.trc
DataRate	CameraRate	NumFrames	NumMarkers	Units	OrigDataRate	OrigDataStartFrame	OrigNumFrames
100.00	100.00	      39	9	mm	100.00	1	      7000
Frame#	Time	front left toe			Front right toe			aft left toe			aft right toe			Arm			FL body			FR body			AL Body			AR Body			
		X1	Y1	Z1	X2	Y2	Z2	X3	Y3	Z3	X4	Y4	Z4	X5	Y5	Z5	X6	Y6	Z6	X7	Y7	Z7	X8	Y8	Z8	X9	Y9	Z9	

1	0.000	-228.80344	26.17475	17.19100	266.45648	27.31117	40.28200	-239.40511	-80.59419	619.27783	243.16174	-88.48750	635.55353	36.86409	930.65991	-128.83202	-54.24250	573.88348	-81.58152	98.83936	580.14075	-77.97055	-72.94158	424.57053	789.38568	77.32395	424.85718	795.31549	
2	0.010	-228.82709	26.21089	17.20014	266.42499	27.31560	40.29312	-239.38312	-80.62755	619.29724	243.19479	-88.43452	635.61041	36.92250	931.22089	-129.35458	-54.30364	573.93860	-81.51603	98.85156	580.03748	-77.56128	-72.94827	424.53595	789.44238	77.28059	424.82370	795.35620	
3	0.020	-228.82106	26.16733	17.21670	266.43756	27.32027	40.29391	-239.40991	-80.62932	619.27246	243.20203	-88.45896	635.56262	36.65479	931.70630	-129.88409	-54.29671	573.97314	-81.49416	98.74032	580.05457	-77.51312	-73.09944	424.56271	789.33527	77.17797	424.75018	795.39343	
4	0.030	-228.85222	26.19359	17.21773	266.44855	27.34635	40.27662	-239.38985	-80.62546	619.28070	243.21869	-88.47398	635.60614	36.60806	932.25171	-130.31290	-54.36308	573.96307	-81.38757	98.72709	580.07159	-77.41257	-73.13239	424.55450	789.36584	76.96301	424.96802	795.55865	
5	0.040	-228.85101	26.20607	17.20515	266.45673	27.33021	40.28598	-239.38631	-80.64297	619.27087	243.14621	-88.43970	635.58984	36.47742	932.76843	-131.01361	-54.36813	574.01331	-81.30404	98.73085	580.06458	-77.35803	-73.21488	424.55005	789.45367	77.23349	424.73080	795.56329	
6	0.050	-228.82240	26.19385	17.21791	266.44824	27.31647	40.29279	-239.40581	-80.63680	619.29114	243.19067	-88.48027	635.65442	36.46288	933.32538	-131.47578	-54.40489	573.98938	-81.20160	98.79530	580.13965	-77.16989	-73.32648	424.55002	789.48969	77.22659	424.76917	795.70801	
7	0.060	-228.79842	26.20759	17.21080	266.45172	27.34142	40.28160	-239.39937	-80.64075	619.29309	243.19191	-88.47850	635.62396	36.40992	933.82996	-132.12434	-54.37537	573.97833	-81.07974	98.71146	580.08020	-77.17790	-73.41297	424.54623	789.52960	77.18246	424.82431	795.83875	
8	0.070	-228.85612	26.20483	17.21443	266.43716	27.33759	40.27274	-239.41461	-80.62354	619.28900	243.18982	-88.46037	635.60376	36.45396	934.35590	-132.57222	-54.36263	573.96674	-80.95037	98.68227	580.06726	-77.09703	-73.49700	424.55829	789.64905	77.22828	424.85855	795.91260	
9	0.080	-228.80075	26.18787	17.20716	266.43329	27.34311	40.28649	-239.42133	-80.58732	619.26917	243.19250	-88.44962	635.64478	36.34910	934.84607	-133.16103	-54.40685	573.99323	-80.83397	98.65286	580.04285	-76.99915	-73.46436	424.61368	789.87872	77.22772	424.90601	795.97058	
10	0.090	-228.84930	26.20795	17.21840	266.43787	27.35967	40.28576	-239.40338	-80.61617	619.27716	243.16933	-88.47800	635.65002	36.33217	935.22870	-133.80196	-54.39611	574.03143	-80.73954	98.83138	580.10016	-76.75532	-73.54735	424.73483	790.05267	77.17331	424.94479	796.01495	
11	0.100	-228.86064	26.21252	17.23119	266.44962	27.34194	40.28650	-239.45201	-80.63153	619.30408	243.21213	-88.48743	635.65015	36.43869	935.72437	-134.46307	-54.44979	574.07166	-80.59254	98.59474	580.16443	-76.97789	-73.56905	424.76788	790.17377	76.90010	425.12595	796.17871	
12	0.110	-228.85124	26.17952	17.26560	266.44089	27.34430	40.28278	-239.41559	-80.65291	619.32996	243.18251	-88.47462	635.66174	36.37957	936.15692	-135.00174	-54.44115	574.08234	-80.44660	98.59885	580.13226	-76.86782	-73.58324	424.83530	790.26404	77.10798	424.97311	796.21564	
13	0.120	-228.84166	26.19299	17.23673	266.41858	27.31697	40.30159	-239.41101	-80.66232	619.31049	243.18620	-88.48035	635.64832	36.32370	936.74530	-135.59135	-54.47177	574.08997	-80.38107	98.57509	580.10303	-76.78806	-73.63369	424.85663	790.25317	77.04258	424.99677	796.31647	
14	0.130	-228.91306	26.22547	17.23820	266.41345	27.32976	40.30037	-239.43124	-80.63908	619.32263	243.19640	-88.44499	635.66937	36.33346	937.03326	-136.14627	-54.49231	574.05743	-80.26227	98.69379	580.07288	-76.46329	-73.32543	424.82791	790.70599	76.90118	425.06458	796.47833	
15	0.140	-228.89001	26.19954	17.25621	266.42224	27.31211	40.32372	-239.43871	-80.64798	619.33307	243.15242	-88.46749	635.64844	36.56017	937.51715	-136.70378	-54.52916	574.05396	-80.18121	98.54262	580.04987	-76.63210	-73.42477	424.94711	790.79077	76.94571	425.11551	796.62891	
16	0.150	-228.88408	26.19910	17.23897	266.39243	27.34732	40.31560	-239.42447	-80.65069	619.30829	243.17697	-88.47220	635.66302	36.53192	937.82996	-137.33029	-54.56279	574.04205	-80.11521	98.51708	580.04114	-76.54624	-73.68829	424.98578	790.50098	76.89297	425.13229	796.71948	
17	0.160	-228.90907	26.23120	17.24807	266.41364	27.31335	40.32841	-239.42952	-80.65175	619.31927	243.15842	-88.49664	635.64246	36.68484	938.41565	-137.80872	-54.52895	574.01508	-80.02248	98.70273	580.01172	-76.23785	-73.33491	424.86295	790.88617	76.89968	425.02148	796.89386	
18	0.170	-228.87697	26.21986	17.25696	266.40961	27.33707	40.34901	-239.42563	-80.67706	619.35748	243.15544	-88.51629	635.68500	36.55685	938.90375	-138.45988	-54.52678	574.04309	-79.95007	98.67738	580.07141	-76.18859	-73.38187	424.94138	790.95166	76.63384	424.30923	796.23621	
19	0.180	-228.86960	26.22738	17.24933	266.43600	27.33015	40.36532	-239.43460	-80.68262	619.35461	243.17751	-88.51580	635.68890	36.68333	939.33234	-138.80809	-54.48079	573.99841	-79.85440	98.67259	580.05176	-76.11949	-73.36226	424.90671	790.98004	76.61594	424.30014	796.33002	
20	0.190	-228.88789	26.20317	17.26552	266.40366	27.34289	40.29656	-239.44522	-80.64261	619.35065	243.21054	-88.49934	635.69122	36.58178	939.85956	-139.28319	-54.51190	574.00720	-79.75729	98.49629	580.10602	-76.30128	-73.36739	424.92883	791.02869	76.66299	424.33371	796.42053	
21	0.200	-228.84129	26.19201	17.26895	266.40002	27.30267	40.35404	-239.40529	-80.68016	619.34589	243.22694	-88.49193	635.69666	36.63011	940.41718	-139.89966	-54.49477	573.99829	-79.70945	98.64083	580.10193	-76.08203	-73.38571	424.96381	791.07874	76.65134	424.31821	796.44427	
22	0.210	-228.88354	26.19935	17.28696	266.43042	27.34370	40.31713	-239.43610	-80.65746	619.35181	243.18201	-88.45663	635.66382	36.61040	941.01917	-140.51909	-54.48338	574.01910	-79.64713	98.59199	580.12732	-76.05612	-73.44416	424.95267	791.13440	76.54970	424.35980	796.51868	
23	0.220	-228.85916	26.20245	17.27732	266.43961	27.33709	40.36440	-239.44324	-80.64825	619.32520	243.17923	-88.50881	635.66779	36.72445	941.45612	-140.88799	-54.48993	574.01794	-79.53521	98.71365	580.03180	-75.65189	-73.42195	424.91022	791.19556	76.59905	424.31143	796.56006	
24	0.230	-228.85530	26.19186	17.29510	266.39063	27.30495	40.33374	-239.43512	-80.68202	619.35962	243.17064	-88.48407	635.69568	36.73574	941.92566	-141.56497	-54.50291	574.04468	-79.49474	98.72152	580.10126	-75.56633	-73.43583	424.85611	791.28503	77.05421	423.91650	796.18445	
25	0.240	-228.88490	26.21984	17.25298	266.40054	27.29997	40.35156	-239.42339	-80.68673	619.36090	243.17540	-88.52676	635.68170	36.77745	942.44220	-142.23387	-54.47606	574.09485	-79.41386	98.70793	580.12433	-75.52816	-73.45277	424.83514	791.34222	76.56749	424.25790	796.62030	
26	0.250	-228.88509	26.22610	17.25957	266.40506	27.30131	40.34603	-239.43439	-80.65449	619.33234	243.19862	-88.48502	635.69495	36.74086	942.99841	-142.83632	-54.50578	574.11200	-79.38100	98.70539	580.17633	-75.49365	-73.50716	424.86972	791.42590	76.85025	424.91208	797.30963	
27	0.260	-228.88383	26.21261	17.25620	266.41418	27.29363	40.35177	-239.43097	-80.63888	619.34143	243.20952	-88.48128	635.72253	36.74291	943.38660	-143.31784	-54.51226	574.14764	-79.34944	98.72260	580.21490	-75.42229	-73.50404	424.88110	791.42010	76.87530	424.90372	797.33887	
28	0.270	-228.89194	26.20514	17.26578	266.37363	27.31032	40.35221	-239.47650	-80.62653	619.33661	243.16298	-88.50763	635.67999	36.56762	943.90082	-143.94620	-54.47771	574.15112	-79.29922	98.59869	580.22150	-75.50632	-73.51636	424.87643	791.46454	76.83855	424.91617	797.36774	
29	0.280	-228.84892	26.17709	17.27523	266.40042	27.31562	40.40092	-239.43327	-80.63906	619.35754	243.17516	-88.47492	635.69849	36.64650	944.34998	-144.45374	-54.48784	574.18555	-79.24120	98.61728	580.24579	-75.43095	-73.70724	424.81293	791.33722	76.84779	424.94592	797.44257	
30	0.290	-228.85864	26.20513	17.27936	266.39539	27.30090	40.36843	-239.45859	-80.67437	619.36389	243.15263	-88.49018	635.68652	36.50179	944.95471	-145.07480	-54.46447	574.19122	-79.21738	98.60820	580.26941	-75.38494	-73.77063	424.85519	791.34100	76.84412	424.94711	797.48700	
31	0.300	-228.90343	26.22171	17.27713	266.42340	27.32350	40.41353	-239.44109	-80.66152	619.35016	243.21271	-88.44875	635.69781	36.52225	945.58600	-145.46379	-54.48622	574.22845	-79.12962	98.70010	580.32458	-75.21885	-73.75175	424.82083	791.37054	76.65482	425.05515	797.61029	
32	0.310	-228.86685	26.21651	17.26851	266.39261	27.31575	40.40516	-239.41159	-80.68661	619.35144	243.18535	-88.49378	635.69171	36.37687	946.02020	-146.12874	-54.53038	574.24304	-79.11086	98.70698	580.29987	-75.13841	-73.71086	424.85117	791.44733	76.89249	424.97510	797.62408	
33	0.320	-228.89333	26.22720	17.27417	266.39584	27.33064	40.42345	-239.42613	-80.69170	619.35669	243.21172	-88.45354	635.69220	36.45275	946.57825	-146.60030	-54.53983	574.25604	-79.05331	98.73331	580.26874	-75.06238	-73.68069	424.85901	791.49982	76.89303	424.98969	797.72369	
34	0.330	-228.90018	26.20785	17.30096	266.43781	27.30585	40.42556	-239.43297	-80.67929	619.37671	243.19412	-88.51975	635.70111	36.65434	947.17230	-147.01437	-54.58368	574.23737	-78.99697	98.70903	580.23071	-74.97288	-73.76112	424.80347	791.57239	76.86619	424.96954	797.76892	
35	0.340	-228.86928	26.15656	17.30821	266.39972	27.25773	40.42603	-239.42516	-80.70744	619.37451	243.17918	-88.50446	635.71741	36.67330	947.73578	-147.59598	-54.57315	574.25934	-78.92598	98.73928	580.19690	-74.86944	-73.75162	424.77542	791.64063	76.94547	424.99234	797.90643	
36	0.350	-228.86632	26.19684	17.29349	266.38409	27.31471	40.49545	-239.43808	-80.69743	619.37250	243.17796	-88.49070	635.69598	36.59495	948.31647	-148.26869	-54.61419	574.28217	-78.88457	98.69846	580.26141	-74.95467	-73.76396	424.78836	791.69812	76.96102	424.97696	797.98254	
37	0.360	-228.82306	26.18539	17.28124	266.38403	27.33706	40.46480	-239.44084	-80.69476	619.39777	243.21367	-88.48052	635.70441	36.73652	948.81799	-148.64740	-54.63170	574.30884	-78.82484	98.69673	580.26404	-74.84302	-73.69945	424.74243	791.83435	76.97657	424.92426	798.01129	
38	0.370	-228.88112	26.24072	17.30994	266.36176	27.32044	40.42498	-239.45317	-80.66222	619.37091	243.19626	-88.51044	635.72571	36.74710	949.33691	-149.25209	-54.64614	574.31342	-78.76582	98.78645	580.27966	-74.69498	-73.69604	424.71652	791.95752	76.97315	424.93481	798.08948	
39	0.380	-228.86435	26.21887	17.29166	266.37979	27.32222	40.48433	-239.46448	-80.67723	619.37115	243.21274	-88.49754	635.74005	36.71938	949.93945	-149.85100	-54.63707	574.33600	-78.69598	98.71785	580.30243	-74.66547	-73.72279	424.71762	792.03693	76.99576	424.96753	798.18347	
